<?xml version="1.0" encoding="utf-8"?>
<!-- Generator: Adobe Illustrator 23.0.0, SVG Export Plug-In . SVG Version: 6.00 Build 0)  -->
<svg version="1.1" id="Camada_1" xmlns="http://www.w3.org/2000/svg" xmlns:xlink="http://www.w3.org/1999/xlink" x="0px" y="0px"
	 viewBox="0 0 21 21" style="enable-background:new 0 0 21 21;" xml:space="preserve">
<style type="text/css">
	.st0{fill-rule:evenodd;clip-rule:evenodd;fill:#FF6C22;}
</style>
<g>
	<path class="st0" d="M6.1,11.4c0-0.5,0.4-0.9,0.9-0.9h7c0.5,0,0.9,0.4,0.9,0.9c0,0.5-0.4,0.9-0.9,0.9H7C6.5,12.3,6.1,11.9,6.1,11.4
		z"/>
	<path class="st0" d="M6.1,14.9C6.1,14.4,6.5,14,7,14h7c0.5,0,0.9,0.4,0.9,0.9c0,0.5-0.4,0.9-0.9,0.9H7C6.5,15.7,6.1,15.4,6.1,14.9z
		"/>
	<path class="st0" d="M6.1,7.9C6.1,7.4,6.5,7,7,7h1.8c0.5,0,0.9,0.4,0.9,0.9c0,0.5-0.4,0.9-0.9,0.9H7C6.5,8.8,6.1,8.4,6.1,7.9z"/>
	<path class="st0" d="M4.2,2.5C4.6,2,5.3,1.8,5.9,1.8h5.4c0.2,0,0.5,0.1,0.6,0.3l5.4,5.5c0.2,0.2,0.2,0.4,0.2,0.6v8.7
		c0,0.6-0.2,1.3-0.7,1.7c-0.4,0.5-1.1,0.7-1.7,0.7H5.9c-0.6,0-1.3-0.3-1.7-0.7c-0.4-0.5-0.7-1.1-0.7-1.7V4.2
		C3.5,3.6,3.7,2.9,4.2,2.5z M5.9,3.5c-0.2,0-0.3,0.1-0.5,0.2C5.3,3.8,5.2,4,5.2,4.2v12.6c0,0.2,0.1,0.4,0.2,0.5
		c0.1,0.1,0.3,0.2,0.5,0.2h9.2c0.2,0,0.3-0.1,0.5-0.2c0.1-0.1,0.2-0.3,0.2-0.5V8.5l-4.9-5H5.9z"/>
	<path class="st0" d="M11.4,2.6c0.5,0,0.9,0.4,0.9,0.9V7h3.5c0.5,0,0.9,0.4,0.9,0.9s-0.4,0.9-0.9,0.9h-4.4c-0.5,0-0.9-0.4-0.9-0.9
		V3.5C10.5,3,10.9,2.6,11.4,2.6z"/>
</g>
</svg>
