<?xml version="1.0" encoding="utf-8"?>
<!-- Generator: Adobe Illustrator 23.0.0, SVG Export Plug-In . SVG Version: 6.00 Build 0)  -->
<svg version="1.1" id="Camada_1" xmlns="http://www.w3.org/2000/svg" xmlns:xlink="http://www.w3.org/1999/xlink" x="0px" y="0px"
	 viewBox="0 0 17 16" style="enable-background:new 0 0 17 16;" xml:space="preserve">
<style type="text/css">
	.st0{fill-rule:evenodd;clip-rule:evenodd;fill:#FFFFFF;}
</style>
<path class="st0" d="M8.5,6c0.4,0,0.7,0.3,0.7,0.7v6c0,0.4-0.3,0.7-0.7,0.7S7.8,13,7.8,12.7v-6C7.8,6.3,8.1,6,8.5,6z"/>
<path class="st0" d="M12,2.7c0.4,0,0.7,0.3,0.7,0.7v9.3c0,0.4-0.3,0.7-0.7,0.7c-0.4,0-0.7-0.3-0.7-0.7V3.3C11.3,3,11.7,2.7,12,2.7z"
	/>
<path class="st0" d="M5,9.3c0.4,0,0.7,0.3,0.7,0.7v2.7c0,0.4-0.3,0.7-0.7,0.7S4.3,13,4.3,12.7V10C4.3,9.6,4.6,9.3,5,9.3z"/>
</svg>
